<svg xmlns="http://www.w3.org/2000/svg" viewBox="0 0 64 64" id="online-test">
  <path d="M25 7h-.09A6.38 6.38 0 0 0 18.5 2a6.7 6.7 0 0 0-5.11 2.3A6 6 0 0 0 11.5 4a5.52 5.52 0 0 0-5 3A4.71 4.71 0 0 0 2 11.5 4.77 4.77 0 0 0 7 16h7.05v4.23A1.77 1.77 0 0 0 15.83 22h2.34A1.77 1.77 0 0 0 20 20.23V13.34h.27a1.74 1.74 0 0 0 1.61-1 1.73 1.73 0 0 0-.25-1.88l-3.22-3.8a1.84 1.84 0 0 0-2.72 0l-3.22 3.8a1.73 1.73 0 0 0-.25 1.88 1.74 1.74 0 0 0 1.61 1h.27V14H7a2.79 2.79 0 0 1-3-2.5A2.79 2.79 0 0 1 7 9a1 1 0 0 0 1.15-.7A3.44 3.44 0 0 1 11.5 6a3.76 3.76 0 0 1 1.77.42 1 1 0 0 0 1.31-.37A4.59 4.59 0 0 1 18.5 4 4.29 4.29 0 0 1 23 8a1 1 0 0 0 .29.85 1 1 0 0 0 .94.26A3.19 3.19 0 0 1 25 9a2.79 2.79 0 0 1 3 2.5 2.47 2.47 0 0 1-1.47 2.14A1.77 1.77 0 0 0 25.17 13H22.83a1.77 1.77 0 0 0-1.78 1.77v6.89h-.27a1.74 1.74 0 0 0-1.61 1 1.73 1.73 0 0 0 .25 1.88l3.22 3.8a1.78 1.78 0 0 0 2.72 0l3.22-3.8a1.73 1.73 0 0 0 .25-1.88 1.74 1.74 0 0 0-1.61-1H27v-6A4.51 4.51 0 0 0 30 11.5 4.77 4.77 0 0 0 25 7zM17 8.12l2.73 3.22A1.78 1.78 0 0 0 18 13.11V20h-1.9V13.11a1.78 1.78 0 0 0-1.78-1.77zm7 18.76l-2.73-3.22a1.78 1.78 0 0 0 1.78-1.77V15H25v6.89a1.78 1.78 0 0 0 1.78 1.77zM58 2H41a1 1 0 0 0-1 1V14.67L37.2 18.4a1 1 0 0 0-.09 1.05A1 1 0 0 0 38 20H61a1 1 0 0 0 .89-.55 1 1 0 0 0-.09-1.05L59 14.67V3A1 1 0 0 0 58 2zM42 4H57V14H42zM40 18l1.5-2h16L59 18z"></path>
  <rect width="9" height="2" x="43" y="5"></rect>
  <rect width="12" height="2" x="43" y="8"></rect>
  <rect width="12" height="2" x="43" y="11"></rect>
  <rect width="2" height="2" x="31" y="10"></rect>
  <rect width="2" height="2" x="34" y="10"></rect>
  <rect width="2" height="2" x="37" y="10"></rect>
  <path d="M30,32H16a1,1,0,0,0-1,1v1H14V28.34h.27a1.74,1.74,0,0,0,1.61-1,1.73,1.73,0,0,0-.25-1.88l-3.22-3.8a1.84,1.84,0,0,0-2.72,0l-3.22,3.8a1.73,1.73,0,0,0-.25,1.88,1.74,1.74,0,0,0,1.61,1h.27v6.89A1.77,1.77,0,0,0,9.83,37H10V61a1,1,0,0,0,1,1H53a1,1,0,0,0,1-1V35a1,1,0,0,0-1-1H49V33a1,1,0,0,0-1-1H34a1,1,0,0,0-.83.45L32,34.2l-1.17-1.75A1,1,0,0,0,30,32ZM17,34H29.46L31,36.3V56.7l-.17-.25A1,1,0,0,0,30,56H17ZM8.27,26.34,11,23.12l2.73,3.22A1.78,1.78,0,0,0,12,28.11V35h-1.9V28.11A1.78,1.78,0,0,0,8.27,26.34ZM12,37h.17a1.78,1.78,0,0,0,1.6-1H15V57a1,1,0,0,0,1,1H29.46l1.34,2H12ZM49,57V36h3V60H33.2l1.34-2H48A1,1,0,0,0,49,57ZM34.54,34H47V56H34a1,1,0,0,0-.83.45L33,56.7V36.3Z"></path>
  <rect width="10" height="2" x="35" y="36"></rect>
  <rect width="6" height="2" x="35" y="42"></rect>
  <rect width="3" height="2" x="42" y="42"></rect>
  <rect width="4" height="2" x="35" y="45"></rect>
  <rect width="5" height="2" x="40" y="45"></rect>
  <rect width="10" height="2" x="35" y="48"></rect>
  <rect width="10" height="2" x="35" y="51"></rect>
  <rect width="10" height="2" x="35" y="39"></rect>
  <rect width="10" height="2" x="19" y="36"></rect>
  <rect width="6" height="2" x="19" y="42"></rect>
  <rect width="3" height="2" x="26" y="42"></rect>
  <rect width="4" height="2" x="19" y="45"></rect>
  <rect width="5" height="2" x="24" y="45"></rect>
  <rect width="10" height="2" x="19" y="48"></rect>
  <rect width="10" height="2" x="19" y="51"></rect>
  <rect width="10" height="2" x="19" y="39"></rect>
</svg>
